FILE "Striker 96 (USA) (Track 1).bin" BINARY
  TRACK 01 MODE1/2352
    INDEX 01 00:00:00
FILE "Striker 96 (USA) (Track 2).bin" BINARY
  TRACK 02 AUDIO
    INDEX 00 00:00:00
    INDEX 01 00:02:00
    INDEX 02 03:12:19
    INDEX 03 06:08:69
    INDEX 04 10:35:57
    INDEX 05 13:31:22
    INDEX 06 16:49:55
FILE "Striker 96 (USA) (Track 3).bin" BINARY
  TRACK 03 AUDIO
    INDEX 00 00:00:00
    INDEX 01 00:02:00
